<svg
          width="186.75"
          height="274.5"
          viewBox="0 0 249 366"
          fill="none"
          xmlns="http://www.w3.org/2000/svg"
        >
          <path
            d="M41.7312 147.345C60.0756 147.345 74.9467 132.474 74.9467 114.13C74.9467 95.7852 60.0756 80.9141 41.7312 80.9141C23.3867 80.9141 8.51562 95.7852 8.51562 114.13C8.51562 132.474 23.3867 147.345 41.7312 147.345Z"
            fill="white"
          />
          <path
            d="M66.806 207.872C66.5947 207.544 66.4194 207.193 66.2831 206.827L61.9955 195.346C61.4965 194.004 61.5498 192.52 62.1437 191.218C62.7376 189.916 63.8237 188.903 65.1637 188.401L160.86 152.668C162.201 152.168 163.685 152.221 164.987 152.815C166.289 153.409 167.302 154.495 167.804 155.836L172.091 167.318C172.339 167.982 172.454 168.688 172.429 169.396C172.404 170.105 172.24 170.801 171.945 171.446C171.651 172.091 171.233 172.672 170.714 173.155C170.196 173.638 169.587 174.014 168.923 174.262L73.2279 209.995C72.0757 210.425 70.8113 210.449 69.6437 210.063C68.4761 209.677 67.4751 208.904 66.806 207.872Z"
            fill="#E7E7E9"
          />
          <path
            d="M160.552 149.704L121.637 165.222C120.411 165.591 119.374 166.418 118.741 167.531C118.108 168.644 117.928 169.958 118.238 171.201L122.754 189.282C122.933 189.997 123.267 190.662 123.734 191.232C124.2 191.802 124.787 192.261 125.452 192.576C126.117 192.892 126.844 193.056 127.58 193.057C128.317 193.059 129.044 192.897 129.71 192.583L168.732 174.216C169.968 173.752 170.97 172.817 171.519 171.616C172.067 170.415 172.118 169.046 171.659 167.808L166.968 152.632C166.504 151.394 165.568 150.39 164.365 149.841C163.162 149.292 161.791 149.243 160.552 149.704Z"
            fill="#41352E"
          />
          <path
            d="M231.77 262.354C230.548 262.494 229.315 262.213 228.275 261.558C227.234 260.903 226.448 259.912 226.047 258.75L192.737 162.185C192.505 161.515 192.408 160.806 192.451 160.098C192.494 159.391 192.676 158.699 192.986 158.061C193.297 157.424 193.729 156.854 194.26 156.384C194.791 155.914 195.409 155.553 196.079 155.322L207.665 151.325C209.018 150.859 210.501 150.95 211.788 151.577C213.074 152.203 214.06 153.315 214.527 154.668L247.838 251.234C248.303 252.587 248.212 254.069 247.585 255.356C246.959 256.642 245.848 257.628 244.495 258.096L232.909 262.092C232.54 262.22 232.158 262.308 231.77 262.354Z"
            fill="#E7E7E9"
          />
          <path
            d="M217.011 153.016L229.795 192.912C230.291 194.093 230.313 195.419 229.857 196.615C229.4 197.812 228.501 198.787 227.345 199.337L210.521 207.357C209.857 207.673 209.13 207.839 208.394 207.841C207.658 207.844 206.93 207.683 206.263 207.371C205.597 207.058 205.008 206.602 204.538 206.035C204.069 205.467 203.731 204.803 203.549 204.09L192.895 162.298C192.467 161.049 192.55 159.681 193.128 158.494C193.706 157.307 194.73 156.397 195.977 155.963L210.67 149.928C211.921 149.498 213.291 149.581 214.479 150.16C215.668 150.739 216.579 151.766 217.011 153.016Z"
            fill="#41352E"
          />
          <path
            d="M178.302 365.875H166.046C164.615 365.873 163.243 365.304 162.231 364.292C161.219 363.28 160.65 361.908 160.648 360.477V258.327C160.65 256.896 161.219 255.524 162.231 254.512C163.243 253.501 164.615 252.931 166.046 252.93H178.302C179.733 252.931 181.105 253.501 182.117 254.512C183.129 255.524 183.698 256.896 183.699 258.327V360.477C183.698 361.908 183.129 363.28 182.117 364.292C181.105 365.304 179.733 365.873 178.302 365.875Z"
            fill="#41352E"
          />
          <path
            d="M202.541 365.875H190.284C188.853 365.873 187.481 365.304 186.469 364.292C185.458 363.28 184.888 361.908 184.887 360.477V258.327C184.888 256.896 185.458 255.524 186.469 254.512C187.481 253.501 188.853 252.931 190.284 252.93H202.541C203.972 252.931 205.344 253.501 206.355 254.512C207.367 255.524 207.936 256.896 207.938 258.327V360.477C207.936 361.908 207.367 363.28 206.355 364.292C205.344 365.304 203.972 365.873 202.541 365.875Z"
            fill="#41352E"
          />
          <path
            d="M212.645 270.338H156.957C155.416 270.336 153.939 269.723 152.849 268.633C151.759 267.544 151.146 266.066 151.145 264.525V174.059C151.145 165.133 154.69 156.572 161.002 150.26C167.314 143.948 175.875 140.402 184.801 140.402C193.728 140.402 202.288 143.948 208.6 150.26C214.912 156.572 218.458 165.133 218.458 174.059V264.525C218.456 266.066 217.843 267.544 216.753 268.633C215.664 269.723 214.186 270.336 212.645 270.338Z"
            fill="#CCCCCC"
          />
          <path
            d="M221.026 292.465H192.793V132.902L193.317 133.045C201.269 135.228 208.285 139.959 213.29 146.511C218.295 153.064 221.012 161.078 221.026 169.323V292.465Z"
            fill="#41352E"
          />
          <path
            d="M174.511 292.465H146.277V169.323C146.291 161.078 149.009 153.064 154.014 146.511C159.019 139.959 166.035 135.228 173.986 133.045L174.511 132.902V292.465Z"
            fill="#41352E"
          />
          <path
            d="M184.379 121.688C208.924 121.688 228.821 101.791 228.821 77.2464C228.821 52.7019 208.924 32.8047 184.379 32.8047C159.835 32.8047 139.938 52.7019 139.938 77.2464C139.938 101.791 159.835 121.688 184.379 121.688Z"
            fill="#E7E7E9"
          />
          <path
            d="M234.625 67.0121C234.625 67.0121 237.116 -1.91008 204.731 20.5104C204.731 20.5104 186.047 -42.1839 140.376 51.65L127.09 64.9362C127.09 64.9362 186.878 56.6323 242.514 82.3743L234.625 67.0121Z"
            fill="#41352E"
          />
          <path
            d="M185.055 99.2522C182.31 99.176 178.894 99.0807 176.262 97.158C175.478 96.562 174.834 95.8018 174.375 94.9307C173.916 94.0596 173.653 93.0987 173.604 92.1152C173.557 91.4163 173.671 90.7158 173.939 90.0686C174.207 89.4214 174.621 88.8448 175.149 88.3841C176.524 87.2225 178.531 86.9501 180.695 87.5858L178.453 71.2059L180.099 70.9805L182.734 90.2371L181.36 89.6066C179.767 88.876 177.58 88.5042 176.221 89.6524C175.887 89.9526 175.628 90.3258 175.462 90.7428C175.296 91.1598 175.228 91.6094 175.264 92.0568C175.304 92.7888 175.502 93.5035 175.843 94.1522C176.184 94.801 176.661 95.3687 177.241 95.8167C179.29 97.3128 182.013 97.5059 185.102 97.5922L185.055 99.2522Z"
            fill="#41352E"
          />
          <path
            d="M170.316 72.6211H161.371V74.2819H170.316V72.6211Z"
            fill="#41352E"
          />
          <path
            d="M198.55 72.6211H189.605V74.2819H198.55V72.6211Z"
            fill="#41352E"
          />
          <path
            d="M85.2911 212.109C84.0925 212.665 82.722 212.722 81.4812 212.268C80.2403 211.813 79.2308 210.885 78.6746 209.686L50.0171 147.918C49.4612 146.72 49.4042 145.349 49.8586 144.109C50.313 142.868 51.2416 141.859 52.4401 141.303C53.6387 140.747 55.0091 140.689 56.2498 141.143C57.4906 141.598 58.5001 142.526 59.0563 143.725L87.7138 205.492C88.2699 206.691 88.3271 208.061 87.8728 209.302C87.4184 210.543 86.4898 211.553 85.2911 212.109Z"
            fill="#3F3D56"
          />
          <path
            d="M56.6337 150.343C49.4826 153.661 41.5083 154.784 33.7191 153.57C25.9298 152.355 18.6757 148.859 12.8738 143.522C7.07193 138.184 2.98299 131.247 1.12404 123.586C-0.734909 115.925 -0.280366 107.885 2.43019 100.482C5.14074 93.0793 9.98553 86.6467 16.352 81.9975C22.7184 77.3483 30.3205 74.6914 38.1969 74.3628C46.0734 74.0341 53.8704 76.0485 60.602 80.1512C67.3336 84.2538 72.6975 90.2605 76.0153 97.4116C80.4519 107.003 80.903 117.962 77.2695 127.885C73.636 137.808 66.2147 145.885 56.6337 150.343ZM27.2773 87.0693C21.9139 89.5576 17.4089 93.5805 14.3319 98.6292C11.2549 103.678 9.74417 109.526 9.99065 115.433C10.2371 121.34 12.2298 127.042 15.7167 131.817C19.2035 136.592 24.0281 140.225 29.58 142.258C35.132 144.291 41.1621 144.632 46.9079 143.238C52.6536 141.843 57.8569 138.777 61.8597 134.425C65.8625 130.074 68.4851 124.633 69.3958 118.791C70.3066 112.95 69.4645 106.969 66.9761 101.605C63.6324 94.4196 57.5748 88.8537 50.1324 86.1286C42.69 83.4035 34.4705 83.7418 27.2773 87.0693Z"
            fill="#3F3D56"
          />
        </svg>