<svg width="224" height="87" viewBox="0 0 224 87" fill="none" xmlns="http://www.w3.org/2000/svg"><rect x="32" y="18" width="160" height="53" fill="white"/><g clip-path="url(#clip0_1030_486)"><path d="M0 0V86.58H223.16V0H0ZM69.21 58.34C65.53 69.78 49.36 69.82 45.63 58.4L32.7 19.63H43.39L54.99 55.21C55.73 57.54 59.02 57.54 59.77 55.21C63.81 42.67 71.54 19.49 71.54 19.62H81.9L69.21 58.33V58.34ZM95.46 66.3H85.49V19.63H95.46V66.3ZM140.04 55.46C140.04 61.45 135.18 66.31 129.19 66.31H101.83V56.42H129.39C129.84 56.42 130.21 56.05 130.21 55.6V48.81C130.21 48.36 129.84 47.99 129.39 47.99H110.11C104.12 47.99 99.26 43.13 99.26 37.14V30.48C99.26 24.49 104.12 19.63 110.11 19.63H139.2V29.65H110.12C109.67 29.65 109.3 30.02 109.3 30.47V37.13C109.3 37.58 109.67 37.95 110.12 37.95H129.19C135.18 37.95 140.04 42.81 140.04 48.8V55.46ZM190.46 37.13C190.46 43.12 185.6 47.98 179.61 47.98H178.81L189.9 66.3H178.58L167.49 47.98H155.71C154.82 47.98 154.09 48.7 154.09 49.6V66.31H144.12V46.04C144.12 41.57 147.74 37.95 152.21 37.95H170L176.27 37.96C179.8 37.96 182.3 33.55 178.56 29.93C178.38 29.76 178.15 29.66 177.9 29.66H144.12V19.64H179.61C185.6 19.64 190.46 24.5 190.46 30.49V37.15V37.13Z" fill="#E2092D"/></g><defs><clipPath id="clip0_1030_486"><rect width="223.16" height="86.58" fill="white"/></clipPath></defs></svg>